# xmcd
#
# Track frame offsets: 
#        150
#        10082
#        23660
#        42242
#        56430
#        73735
#        91377
#        102657
#        124507
#        135935
#        154315
#
# Disc length: 2342 seconds
#
# Revision: 10
# Processed by: cddbd v1.5.2PL0 Copyright (c) Steve Scherf et al.
# Submitted via: ExactAudioCopy v1.0b3
#
DISCID=8809240b
DTITLE=Mary Chapin Carpenter - State Of The Heart
DYEAR=1989
DGENRE=Country
TTITLE0=How Do
TTITLE1=Something of a Dreamer
TTITLE2=Never Had it So Good
TTITLE3=Read My Lips
TTITLE4=This Shirt
TTITLE5=Quittin' Time
TTITLE6=Down in Mary's Land
TTITLE7=Goodbye Again
TTITLE8=Too Tired
TTITLE9=Slow Country Dance
TTITLE10=it Don't Bring You
EXTD=(c)1989 Columbia Records\nupc 007464442281
EXTT0=
EXTT1=
EXTT2=
EXTT3=
EXTT4=
EXTT5=
EXTT6=
EXTT7=
EXTT8=
EXTT9=
EXTT10=
PLAYORDER=
